# xmcd
#
# Track frame offsets: 
#        183
#        15323
#        24400
#        35415
#        49905
#        63798
#        78063
#        89643
#        109053
#        122273
#
# Disc length: 1806 seconds
#
# Revision: 13
# Processed by: cddbd v1.5.2PL0 Copyright (c) Steve Scherf et al.
# Submitted via: ExactAudioCopy v0.95b4
#
DISCID=6a070c0a
DTITLE=Marty Stuart - Tempted
DYEAR=1991
DGENRE=Country
TTITLE0=I'm Blue, I'm Lonesome
TTITLE1=Paint The Town Tonight
TTITLE2=Till I Found You
TTITLE3=Tempted
TTITLE4=Blue Train
TTITLE5=Little Things
TTITLE6=Half A Heart
TTITLE7=I Want A Woman
TTITLE8=Burn Me Down
TTITLE9=Get Back To The Country
EXTD=
EXTT0=
EXTT1=
EXTT2=
EXTT3=
EXTT4=
EXTT5=
EXTT6=
EXTT7=
EXTT8=
EXTT9=
PLAYORDER=
